<svg id="Layer_1" viewBox="0 0 512 512" xmlns="http://www.w3.org/2000/svg" xmlns:xlink="http://www.w3.org/1999/xlink" data-name="Layer 1"><linearGradient id="linear-gradient" gradientUnits="userSpaceOnUse" x1="146.105" x2="358.972" y1="474.801" y2="106.105"><stop offset=".016" stop-color="#e65233"/><stop offset="1" stop-color="#f9a82d"/></linearGradient><path d="m365.358 336.59h-6.783v-13.565h28.566v13.565zm43.4 0h-6.783v-13.565h28.566v13.565zm43.4 0h-6.784v-13.565h28.568v13.565zm-86.8 40.813h-6.783v-13.565h28.566v13.562zm43.4 0h-6.783v-13.565h28.566v13.562zm-43.4 40.812h-6.783v-13.564h28.566v13.564zm43.4 0h-6.783v-13.564h28.566v13.564zm43.4-40.812h-6.784v-13.565h28.568v13.562zm0 40.812h-6.784v-13.564h28.568v13.564zm38.454-204.652h-148.707a6.7 6.7 0 0 0 -6.658 6.658v213.318a6.7 6.7 0 0 0 6.658 6.658h148.712a6.7 6.7 0 0 0 6.658-6.658v-213.318a6.7 6.7 0 0 0 -6.658-6.658zm-24.412 30.178v35.428h-102.06v-35.428zm-108.843-13.565h115.629a6.783 6.783 0 0 1 6.783 6.782v48.993a6.783 6.783 0 0 1 -6.783 6.783h-115.629a6.783 6.783 0 0 1 -6.784-6.783v-48.993a6.784 6.784 0 0 1 6.784-6.782zm-95.024 124.237a82.33 82.33 0 0 0 -58.385-24.188h-.013a82.583 82.583 0 1 0 58.4 24.188zm-51.616 112.735a6.783 6.783 0 1 1 -13.565 0v-6.759a32.877 32.877 0 0 1 -4.82-1.364c-10.018-3.693-17.845-12.147-17.845-25.368a6.783 6.783 0 1 1 13.565 0 12.974 12.974 0 0 0 8.948 12.65 20.77 20.77 0 0 0 13.877 0 12.972 12.972 0 0 0 8.943-12.65c0-10.5-8.681-12.393-17.351-14.285-14-3.053-27.978-6.106-27.978-27.407 0-13.221 7.827-21.675 17.845-25.368a32.877 32.877 0 0 1 4.82-1.364v-6.759a6.783 6.783 0 1 1 13.565 0v6.759a32.864 32.864 0 0 1 4.819 1.364c10.018 3.693 17.846 12.147 17.846 25.368a6.783 6.783 0 0 1 -13.566 0 12.971 12.971 0 0 0 -8.943-12.65 20.739 20.739 0 0 0 -13.877 0 12.973 12.973 0 0 0 -8.944 12.65c0 10.39 8.634 12.273 17.274 14.159 14.019 3.059 28.056 6.122 28.056 27.533 0 13.221-7.828 21.675-17.846 25.368a32.765 32.765 0 0 1 -4.805 1.361c-.004 2.253-.018 4.508-.018 6.762zm182.455-333.465-182.441 105.332v77.885a96.187 96.187 0 0 1 88.332 81.851l22.619-13.058v-165.472a20.267 20.267 0 0 1 20.223-20.221h51.267zm-306.833 41.346v75.693l35.719 20.3.277-75.207zm190.904-116.109-182.499 105.365 36.01 20.792 182.5-105.367zm-196.032 97.552 182.499-105.365-59.762-34.507-182.499 105.368zm54.609 47.128-.292 79.016a6.766 6.766 0 0 1 -10.091 5.876l-49.22-27.959a6.759 6.759 0 0 1 -3.425-5.882l-.019-87.451-58.048-33.517v210.733l94.083 54.317a96.185 96.185 0 0 1 88.358-81.833v-77.88zm-86.668 121.5a6.754 6.754 0 0 1 6.73-11.711l44.06 25.438a6.753 6.753 0 1 1 -6.73 11.71zm277.635-237.577-182.5 105.366 59.66 34.446 182.5-105.367z" fill="url(#linear-gradient)" fill-rule="evenodd"/></svg>