<?xml version="1.0" encoding="UTF-8"?>
<!-- Generator: Adobe Illustrator 24.2.3, SVG Export Plug-In . SVG Version: 6.00 Build 0)  -->
<svg xmlns="http://www.w3.org/2000/svg" xmlns:xlink="http://www.w3.org/1999/xlink" version="1.1" id="Capa_1" x="0px" y="0px" viewBox="0 0 512 512" style="enable-background:new 0 0 512 512;" xml:space="preserve" width="512" height="512">
<g>
	<path style="fill:#33CCCC;" d="M91.26,207.815c-2.72,0-5.352-1.008-7.379-2.843l-18.96-17.154   c-4.505-4.076-4.853-11.032-0.777-15.537c4.075-4.504,11.032-4.853,15.537-0.777l10.669,9.653l30.761-35.131   c4.001-4.571,10.951-5.032,15.522-1.03c4.57,4.002,5.031,10.952,1.029,15.522l-38.126,43.543c-1.942,2.218-4.694,3.563-7.637,3.735   C91.685,207.809,91.472,207.815,91.26,207.815z"/>
	<path d="M268.338,207.22h-86.532c-6.075,0-11-4.925-11-11s4.925-11,11-11h86.532c6.075,0,11,4.925,11,11   S274.413,207.22,268.338,207.22z"/>
	<path d="M268.338,270.355H71.05c-6.075,0-11-4.925-11-11s4.925-11,11-11h197.288c6.075,0,11,4.925,11,11   S274.413,270.355,268.338,270.355z"/>
	<path style="fill:#33CCCC;" d="M91.26,382.304c-2.72,0-5.352-1.008-7.379-2.843l-18.96-17.154   c-4.505-4.076-4.853-11.032-0.777-15.537c4.075-4.505,11.032-4.853,15.537-0.777l10.669,9.653l30.761-35.132   c4.001-4.571,10.951-5.032,15.522-1.03c4.571,4.002,5.032,10.952,1.03,15.522L99.536,378.55c-1.942,2.218-4.694,3.564-7.637,3.735   C91.685,382.298,91.472,382.304,91.26,382.304z"/>
	<path d="M272.323,381.651h-90.518c-6.075,0-11-4.925-11-11s4.925-11,11-11h90.518c6.075,0,11,4.925,11,11   S278.399,381.651,272.323,381.651z"/>
	<path d="M268.338,443.884H71.05c-6.075,0-11-4.925-11-11s4.925-11,11-11h197.288c6.075,0,11,4.925,11,11   S274.413,443.884,268.338,443.884z"/>
	<path d="M478.571,0H188.768c-1.042,0.005-4.885,0.17-8.958,2.017c-3.164-0.711-6.446-1.092-9.808-1.092   c-20.771,0-38.546,14.332-43.764,33.624h-19.434c-9.649,0-17.5,7.851-17.5,17.5v2.773H31.481c-17.07,0-30.958,13.888-30.958,30.958   v395.263C0.523,498.112,14.41,512,31.481,512h277.044c15.388,0,28.185-11.287,30.559-26.015h142.044c1.2,0,2.375-0.196,3.486-0.567   c15.467-2.866,26.863-16.383,26.863-32.339V32.906C511.477,14.762,496.716,0,478.571,0z M135.697,56.548   c5.989,0,10.877-4.791,10.998-10.779c0.253-12.597,10.709-22.845,23.309-22.845s23.055,10.248,23.309,22.845   c0.12,5.988,5.009,10.779,10.998,10.779h24.392v25.207H111.304V56.548H135.697z M317.483,481.042c0,4.939-4.019,8.958-8.958,8.958   H31.481c-4.939,0-8.958-4.019-8.958-8.958V85.779c0-4.939,4.019-8.958,8.958-8.958h57.824v7.455   c0,10.74,8.738,19.479,19.479,19.479h122.439c10.741,0,19.479-8.738,19.479-19.479v-7.455h57.824c4.939,0,8.958,4.019,8.958,8.958   V481.042z M489.477,453.079c0,5.541-4.146,10.194-9.643,10.823c-0.197,0.022-0.394,0.05-0.588,0.083H339.483V85.779   c0-17.07-13.888-30.958-30.958-30.958h-57.824v-2.582c0-9.755-7.936-17.691-17.691-17.691h-19.243   c-1.215-4.493-3.119-8.712-5.576-12.548h270.38c6.014,0,10.906,4.893,10.906,10.906V453.079z"/>
</g>















</svg>
