<?xml version="1.0" encoding="UTF-8" standalone="no"?>
<!-- Created with Inkscape (http://www.inkscape.org/) -->

<svg
   version="1.1"
   id="svg1311"
   xml:space="preserve"
   width="682.66669"
   height="682.66669"
   viewBox="0 0 682.66669 682.66669"
   xmlns="http://www.w3.org/2000/svg"
   xmlns:svg="http://www.w3.org/2000/svg"><defs
     id="defs1315"><clipPath
       clipPathUnits="userSpaceOnUse"
       id="clipPath1325"><path
         d="M 0,512 H 512 V 0 H 0 Z"
         id="path1323" /></clipPath></defs><g
     id="g1317"
     transform="matrix(1.3333333,0,0,-1.3333333,0,682.66667)"><g
       id="g1319"><g
         id="g1321"
         clip-path="url(#clipPath1325)"><g
           id="g1327"
           transform="translate(128.7789,460.7428)"><path
             d="m 0,0 c 36.976,23.127 80.343,36.257 127.213,36.257 133.097,0 240.992,-107.896 240.992,-240.992 0,-133.097 -107.895,-240.993 -240.992,-240.993 -133.096,0 -240.992,107.896 -240.992,240.993 0,48.59 14.084,93.335 38.821,131.184"
             style="fill:none;stroke:#000000;stroke-width:30;stroke-linecap:round;stroke-linejoin:round;stroke-miterlimit:10;stroke-dasharray:none;stroke-opacity:1"
             id="path1329" /></g><g
           id="g1331"
           transform="translate(195.2496,126.2404)"><path
             d="m 0,0 c 11.981,21.938 34.668,36.74 60.681,36.74 26.114,0 48.875,-14.916 60.82,-36.996"
             style="fill:none;stroke:#000000;stroke-width:30;stroke-linecap:round;stroke-linejoin:round;stroke-miterlimit:10;stroke-dasharray:none;stroke-opacity:1"
             id="path1333" /></g><g
           id="g1335"
           transform="translate(107.3199,497.0002)"><path
             d="m 0,0 46.747,-78.979 c 4.76,-8.042 7.317,-15.306 7.487,-24.648 0.543,-29.819 -23.189,-54.432 -53.007,-54.975 -29.819,-0.543 -54.432,23.189 -54.975,53.008 -0.18,9.834 2.379,16.879 7.308,25.39 z"
             style="fill:none;stroke:#000000;stroke-width:30;stroke-linecap:round;stroke-linejoin:round;stroke-miterlimit:10;stroke-dasharray:none;stroke-opacity:1"
             id="path1337" /></g><g
           id="g1339"
           transform="translate(129.1968,260.9479)"><path
             d="M 0,0 C 0,20.24 16.403,36.648 36.639,36.648 56.874,36.648 73.278,20.24 73.278,0"
             style="fill:none;stroke:#000000;stroke-width:30;stroke-linecap:round;stroke-linejoin:round;stroke-miterlimit:10;stroke-dasharray:none;stroke-opacity:1"
             id="path1341" /></g><g
           id="g1343"
           transform="translate(309.525,260.9479)"><path
             d="M 0,0 C 0,20.24 16.403,36.648 36.64,36.648 56.875,36.648 73.278,20.24 73.278,0"
             style="fill:none;stroke:#000000;stroke-width:30;stroke-linecap:round;stroke-linejoin:round;stroke-miterlimit:10;stroke-dasharray:none;stroke-opacity:1"
             id="path1345" /></g></g></g></g></svg>
